<svg width="164" height="72" viewBox="0 0 164 72" fill="none" xmlns="http://www.w3.org/2000/svg">
<path d="M59.2188 30.625V40.4688H39.1406V53.75H66.0156V63.9062H0V53.75H26.7188V40.4688H7.34375V3.90625H58.75V13.75H19.9219V30.625H59.2188ZM95.0625 29.9219V41.0938H68.6562V29.9219H95.0625ZM137 20.7812V27.5781H163.875V37.3438H97.9375V27.5781H124.5V20.7812H137ZM137.156 0.703125C137.156 7.42188 141.766 14.2188 160.516 15.7812L156.219 25.3125C143.523 23.8672 135.164 19.9219 130.672 14.0625C126.102 19.9219 117.82 23.8672 105.125 25.3125L100.828 15.7812C119.5 14.2188 124.344 7.42188 124.344 0.703125V0H137.156V0.703125ZM156.062 39.5312V59.5312H117.547V61.9531H157.781V71.1719H105.281V50.9375H143.719V48.8281H105.359V39.5312H156.062Z" fill="url(#paint0_linear_12_462)"/>
<defs>
<linearGradient id="paint0_linear_12_462" x1="166.359" y1="35.75" x2="-1.64062" y2="35.75" gradientUnits="userSpaceOnUse">
<stop offset="0.3" stop-color="#808DFD"/>
<stop offset="1"/>
</linearGradient>
</defs>
</svg>
