<svg width="1674" height="187" viewBox="0 0 1674 187" fill="none" xmlns="http://www.w3.org/2000/svg">
<rect width="1674" height="187" fill="white"/>
<path d="M520.288 57.2498H609.554V72.0147H520.288V57.2498ZM521.35 76.2609L605.694 76.2609V90.8328L564.39 90.8328V95.1755C581.954 96.4783 592.376 103.957 592.376 114.959C592.376 126.925 579.831 134.645 559.083 134.549C538.528 134.645 525.982 126.925 525.982 114.959C525.982 104.295 535.777 96.9608 552.231 95.272V90.8328H521.35V76.2609ZM540.651 114.959C540.651 118.626 545.958 120.459 559.083 120.363C572.304 120.459 577.515 118.626 577.515 114.959C577.515 111.195 572.304 109.168 559.083 109.168C545.958 109.168 540.651 111.195 540.651 114.959ZM676.142 99.8076C693.319 99.9041 709.725 95.3685 716.383 79.349L728.639 88.8063C724.152 98.2153 716.576 104.199 706.926 107.721C717.3 111.388 725.599 117.661 730.28 127.504L717.638 137.154C710.4 120.459 693.126 115.634 676.142 115.634H664.658V99.8076H676.142ZM658.288 58.9868H747.843V74.3308L697.276 74.3308V89.4818H684.923V74.3308H658.288V58.9868ZM796.385 86.5867H884.975V102.027H796.385V86.5867Z" fill="black"/>
<path d="M1072.29 63.1364H1106.16V52.4246L1118.9 52.4246V63.1364H1161.55V78.6734H1072.29V63.1364ZM1081.17 108.782C1107.71 108.879 1125.65 109.94 1143.51 125.863L1134.92 137.83C1122.18 126.539 1111.13 124.078 1093.71 123.451V133.198H1081.17V108.782ZM1081.17 83.8846C1109.35 83.9811 1129.8 85.5252 1149.1 100.773L1140.52 112.836C1126.14 101.931 1113.54 99.1803 1093.71 98.4566V105.694H1081.17V83.8846ZM1232.68 98.9391C1246.67 98.9391 1262.11 93.7279 1268.67 77.6119L1280.74 85.8147C1276.54 96.044 1268.72 102.654 1259.12 106.466C1269.78 110.375 1278.47 117.082 1283.05 127.504L1270.89 136.189C1263.94 120.17 1247.64 114.766 1232.68 114.766H1231.13V132.329H1218.59V81.858H1231.13V98.9391H1232.68ZM1210.29 59.7588H1299.55V75.3923H1210.29V59.7588Z" fill="#808DFD"/>
<mask id="path-2-outside-1_12_240" maskUnits="userSpaceOnUse" x="375.186" y="57.1724" width="91" height="83" fill="black">
<rect fill="white" x="375.186" y="57.1724" width="91" height="83"/>
<path d="M455.607 94.0804V107.183L428.881 107.183V124.862L464.654 124.862V138.38H376.782V124.862H412.347V107.183H386.557V58.5157L454.983 58.5157V71.6185H403.299V94.0804L455.607 94.0804Z"/>
</mask>
<path d="M455.607 94.0804V107.183L428.881 107.183V124.862L464.654 124.862V138.38H376.782V124.862H412.347V107.183H386.557V58.5157L454.983 58.5157V71.6185H403.299V94.0804L455.607 94.0804Z" fill="black"/>
<path d="M455.607 94.0804H456.459V93.2286H455.607V94.0804ZM455.607 107.183V108.035H456.459V107.183H455.607ZM428.881 107.183V106.331H428.029V107.183H428.881ZM428.881 124.862H428.029V125.713H428.881V124.862ZM464.654 124.862H465.506V124.01H464.654V124.862ZM464.654 138.38V139.232H465.506V138.38H464.654ZM376.782 138.38H375.93V139.232H376.782V138.38ZM376.782 124.862V124.01H375.93V124.862H376.782ZM412.347 124.862V125.713H413.199V124.862H412.347ZM412.347 107.183H413.199V106.331H412.347V107.183ZM386.557 107.183H385.705V108.035H386.557V107.183ZM386.557 58.5157V57.6638H385.705V58.5157H386.557ZM454.983 58.5157H455.835V57.6638H454.983V58.5157ZM454.983 71.6185V72.4704H455.835V71.6185H454.983ZM403.299 71.6185V70.7666H402.448V71.6185H403.299ZM403.299 94.0804H402.448V94.9323H403.299V94.0804ZM455.607 94.0804H454.755V107.183H455.607H456.459V94.0804H455.607ZM455.607 107.183V106.331L428.881 106.331V107.183V108.035L455.607 108.035V107.183ZM428.881 107.183H428.029V124.862H428.881H429.733V107.183H428.881ZM428.881 124.862V125.713L464.654 125.713V124.862V124.01L428.881 124.01V124.862ZM464.654 124.862H463.802V138.38H464.654H465.506V124.862H464.654ZM464.654 138.38V137.528H376.782V138.38V139.232H464.654V138.38ZM376.782 138.38H377.634V124.862H376.782H375.93V138.38H376.782ZM376.782 124.862V125.713H412.347V124.862V124.01H376.782V124.862ZM412.347 124.862H413.199V107.183H412.347H411.495V124.862H412.347ZM412.347 107.183V106.331H386.557V107.183V108.035H412.347V107.183ZM386.557 107.183H387.409V58.5157H386.557H385.705V107.183H386.557ZM386.557 58.5157V59.3676L454.983 59.3676V58.5157V57.6638L386.557 57.6638V58.5157ZM454.983 58.5157H454.131V71.6185H454.983H455.835V58.5157H454.983ZM454.983 71.6185V70.7666H403.299V71.6185V72.4704H454.983V71.6185ZM403.299 71.6185H402.448V94.0804H403.299H404.151V71.6185H403.299ZM403.299 94.0804V94.9323L455.607 94.9323V94.0804V93.2286L403.299 93.2286V94.0804Z" fill="black" mask="url(#path-2-outside-1_12_240)"/>
<path d="M986.765 73.547V82.5942H1022.54V95.593L934.769 95.593V82.5942H970.126V73.547H986.765ZM986.973 46.8215C986.973 55.7646 993.108 64.8118 1018.07 66.8916L1012.35 79.5784C995.448 77.6546 984.321 72.4031 978.341 64.6038C972.258 72.4031 961.235 77.6546 944.336 79.5784L938.617 66.8916C963.471 64.8118 969.918 55.7646 969.918 46.8215V45.8856L986.973 45.8856V46.8215ZM1012.14 98.5047V125.126L960.871 125.126V128.35H1014.43V140.621H944.544V113.687L995.708 113.687V110.88L944.648 110.88V98.5047L1012.14 98.5047Z" fill="#808DFD"/>
</svg>
