<svg width="1440" height="220" viewBox="0 0 1440 220" fill="none" xmlns="http://www.w3.org/2000/svg">
<mask id="path-1-inside-1_12_240" fill="white">
<path d="M0 0H1440V220H0V0Z"/>
</mask>
<path d="M0 0H1440V220H0V0Z" fill="white"/>
<path d="M1440 220V219H0V220V221H1440V220Z" fill="black" mask="url(#path-1-inside-1_12_240)"/>
<path d="M346.43 67.2031H451.215V84.5352H346.43V67.2031ZM347.676 89.5195H446.684V106.625H398.199V111.723C418.816 113.252 431.051 122.031 431.051 134.945C431.051 148.992 416.324 158.055 391.969 157.941C367.84 158.055 353.113 148.992 353.113 134.945C353.113 122.428 364.611 113.818 383.926 111.836V106.625L347.676 106.625V89.5195ZM370.332 134.945C370.332 139.25 376.562 141.402 391.969 141.289C407.488 141.402 413.605 139.25 413.605 134.945C413.605 130.527 407.488 128.148 391.969 128.148C376.562 128.148 370.332 130.527 370.332 134.945ZM529.387 117.16C549.551 117.273 568.809 111.949 576.625 93.1445L591.012 104.246C585.744 115.291 576.852 122.314 565.523 126.449C577.701 130.754 587.443 138.117 592.938 149.672L578.098 161C569.602 141.402 549.324 135.738 529.387 135.738H515.906V117.16H529.387ZM508.43 69.2422L613.555 69.2422V87.2539L554.195 87.2539V105.039H539.695V87.2539H508.43V69.2422ZM670.543 101.641H774.535V119.766H670.543V101.641Z" fill="black"/>
<path d="M994.43 74.1133H1034.19V61.5391H1049.14V74.1133H1099.21V92.3516H994.43V74.1133ZM1004.85 127.695C1036 127.809 1057.07 129.055 1078.03 147.746L1067.95 161.793C1053 148.539 1040.03 145.65 1019.58 144.914V156.355H1004.85V127.695ZM1004.85 98.4687C1037.93 98.582 1061.95 100.395 1084.6 118.293L1074.52 132.453C1057.64 119.652 1042.86 116.424 1019.58 115.574V124.07H1004.85V98.4687ZM1182.71 116.141C1199.14 116.141 1217.26 110.023 1224.96 91.1055L1239.12 100.734C1234.2 112.742 1225.02 120.502 1213.75 124.977C1226.27 129.564 1236.46 137.437 1241.84 149.672L1227.57 159.867C1219.41 141.062 1200.27 134.719 1182.71 134.719H1180.9V155.336H1166.17V96.0898H1180.9V116.141H1182.71ZM1156.43 70.1484L1261.21 70.1484V88.5L1156.43 88.5V70.1484Z" fill="#808DFD"/>
<mask id="path-4-outside-2_12_240" maskUnits="userSpaceOnUse" x="177" y="67.7227" width="106" height="97" fill="black">
<rect fill="white" x="177" y="67.7227" width="106" height="97"/>
<path d="M270.577 110.965V126.346L239.205 126.346V147.098H281.197V162.967H178.047L178.047 147.098H219.795V126.346H189.522V69.2168H269.844V84.5977H209.175V110.965L270.577 110.965Z"/>
</mask>
<path d="M270.577 110.965V126.346L239.205 126.346V147.098H281.197V162.967H178.047L178.047 147.098H219.795V126.346H189.522V69.2168H269.844V84.5977H209.175V110.965L270.577 110.965Z" fill="black"/>
<path d="M270.577 110.965H271.577V109.965H270.577V110.965ZM270.577 126.346V127.346H271.577V126.346H270.577ZM239.205 126.346V125.346H238.205V126.346H239.205ZM239.205 147.098H238.205V148.098H239.205V147.098ZM281.197 147.098H282.197V146.098H281.197V147.098ZM281.197 162.967V163.967H282.197V162.967H281.197ZM178.047 162.967H177.047V163.967H178.047V162.967ZM178.047 147.098V146.098H177.047V147.098H178.047ZM219.795 147.098V148.098H220.795V147.098H219.795ZM219.795 126.346H220.795V125.346H219.795V126.346ZM189.522 126.346H188.522V127.346H189.522V126.346ZM189.522 69.2168V68.2168H188.522V69.2168H189.522ZM269.844 69.2168H270.844V68.2168H269.844V69.2168ZM269.844 84.5977V85.5977H270.844V84.5977H269.844ZM209.175 84.5977V83.5977H208.175V84.5977H209.175ZM209.175 110.965H208.175V111.965H209.175V110.965ZM270.577 110.965H269.577V126.346H270.577H271.577V110.965H270.577ZM270.577 126.346V125.346L239.205 125.346V126.346V127.346L270.577 127.346V126.346ZM239.205 126.346H238.205V147.098H239.205H240.205V126.346H239.205ZM239.205 147.098V148.098H281.197V147.098V146.098H239.205V147.098ZM281.197 147.098H280.197V162.967H281.197H282.197V147.098H281.197ZM281.197 162.967V161.967H178.047V162.967V163.967H281.197V162.967ZM178.047 162.967H179.047L179.047 147.098H178.047H177.047L177.047 162.967H178.047ZM178.047 147.098V148.098H219.795V147.098V146.098H178.047V147.098ZM219.795 147.098H220.795V126.346H219.795H218.795V147.098H219.795ZM219.795 126.346V125.346H189.522V126.346V127.346H219.795V126.346ZM189.522 126.346H190.522V69.2168H189.522H188.522V126.346H189.522ZM189.522 69.2168V70.2168H269.844V69.2168V68.2168H189.522V69.2168ZM269.844 69.2168H268.844V84.5977H269.844H270.844V69.2168H269.844ZM269.844 84.5977V83.5977H209.175V84.5977V85.5977H269.844V84.5977ZM209.175 84.5977H208.175V110.965H209.175H210.175V84.5977H209.175ZM209.175 110.965V111.965L270.577 111.965V110.965V109.965L209.175 109.965V110.965Z" fill="black" mask="url(#path-4-outside-2_12_240)"/>
<path d="M894.083 86.8613V97.4814H936.075V112.74L833.047 112.74V97.4814H874.551V86.8613L894.083 86.8613ZM894.327 55.4893C894.327 65.9873 901.529 76.6074 930.826 79.0488L924.112 93.9414C904.275 91.6831 891.214 85.5186 884.195 76.3633C877.054 85.5186 864.114 91.6831 844.278 93.9414L837.564 79.0488C866.739 76.6074 874.307 65.9873 874.307 55.4893V54.3906H894.327V55.4893ZM923.868 116.158V147.408H863.687V151.192H926.553V165.597H844.522V133.98H904.581V130.685H844.644V116.158L923.868 116.158Z" fill="#808DFD"/>
</svg>
