<svg width="43" height="36" viewBox="0 0 43 36" fill="none" xmlns="http://www.w3.org/2000/svg">
<path d="M15.0059 3.93652C15.6974 1.15652 18.5119 -0.537055 21.292 0.154297L38.6035 4.45996C40.9637 5.04711 42.5397 7.16397 42.5391 9.49121L42.6709 9.52441L42.4639 10.3623C42.4421 10.4899 42.4175 10.6184 42.3857 10.7461L41.2891 15.1562L41.2812 15.1543L37.4111 30.8428C36.9878 33.4933 34.6231 35.5223 31.7686 35.5225C28.6145 35.5225 26.0568 33.0457 26.0566 29.9902C26.0566 26.9346 28.6144 24.457 31.7686 24.457C33.4314 24.4571 34.928 25.1463 35.9717 26.2451L38.8564 14.5508L16.3301 8.94824L11.4121 28.8818C11.2412 31.7886 8.75431 34.0947 5.71094 34.0947C2.55689 34.0947 0.0001777 31.6179 0 28.5625C0 25.5069 2.55678 23.0293 5.71094 23.0293C7.34331 23.0293 8.81466 23.6941 9.85547 24.7578L14.7744 4.8252L14.7842 4.82715L15.0059 3.93652Z" fill="black"/>
</svg>
